inDegrees=yes
name=ik_S46_A07_T02
DataType=double
version=3
OpenSimVersion=4.3-2021-08-27-4bc7ad9
endheader
time	pelvis_tilt	pelvis_list	pelvis_rotation	pelvis_tx	pelvis_ty	pelvis_tz	hip_flexion_r	hip_adduction_r	hip_rotation_r	knee_angle_r	knee_angle_r_beta	ankle_angle_r	subtalar_angle_r	mtp_angle_r	hip_flexion_l	hip_adduction_l	hip_rotation_l	knee_angle_l	knee_angle_l_beta	ankle_angle_l	subtalar_angle_l	mtp_angle_l	lumbar_extension	lumbar_bending	lumbar_rotation	arm_flex_r	arm_add_r	arm_rot_r	elbow_flex_r	pro_sup_r	wrist_flex_r	wrist_dev_r	arm_flex_l	arm_add_l	arm_rot_l	elbow_flex_l	pro_sup_l	wrist_flex_l	wrist_dev_l
14.23999999999979	-9.429650833126546	-3.491433947988787	27.24090178250952	0	0.9399999999999999	0	37.02504889572997	-10.51999687129278	-9.910221967743492	46.17680120235321	0.8059372190199399	0	0	0	37.02504889572997	-10.51999687129278	-9.910221967743492	46.17680120235321	0.8059372190199399	0	0	0	-7.778529494333797	-3.346593416384205	6.150830633441147	70.79212483346382	-9.417790374669774	2.570650122953044	74.72397284890589	93.1053448533786	0	0	13.17366220188067	-4.923097624198992	9.28104797762375	57.47982444786813	118.081711195551	0	0
14.25999999999978	-9.462571357562371	-3.490212300553108	27.21474847888459	0	0.9399999999999999	0	37.02748397041974	-10.51945105031387	-9.910282505840335	46.17862652290238	0.8059690768734272	0	0	0	37.02748397041974	-10.51945105031387	-9.910282505840335	46.17862652290238	0.8059690768734272	0	0	0	-7.808059591875412	-3.328046960871736	6.15665825030834	69.25891844146726	-9.093031470423288	2.279058158379492	73.70359941728807	93.32588768835218	0	0	13.1718714615266	-4.911195638542508	9.270279367494705	57.50955058877737	118.0666696528957	0	0
14.27999999999978	-9.533911445815244	-3.498452624875275	27.17039625360658	0	0.9399999999999999	0	37.03118154513616	-10.51861967730734	-9.910374632652472	46.18138779234197	0.8060172701166827	0	0	0	37.03118154513616	-10.51861967730734	-9.910374632652472	46.18138779234197	0.8060172701166827	0	0	0	-7.876754567856016	-3.299236617394374	6.1549417614643	68.71192186454635	-8.900216100198618	2.167128525239774	72.7175205441815	93.53811438377386	0	0	13.23965058147694	-4.87842108931226	9.227116039092689	57.60278640266965	118.0522011655526	0	0
14.29999999999978	-9.562820976048835	-3.499339773213169	27.16491513220135	0	0.9399999999999999	0	37.03377237299971	-10.51803952752789	-9.910439020565887	46.18332872682928	0.8060511458140518	0	0	0	37.03377237299971	-10.51803952752789	-9.910439020565887	46.18332872682928	0.8060511458140518	0	0	0	-7.902867658355464	-3.287433364408944	6.174852779577098	67.43206980047526	-8.645322665669285	1.839124280124624	72.33787821898997	94.01355107774337	0	0	13.22295694301424	-4.859519458098208	9.242317391325177	57.62439772598187	118.0546641388591	0	0
14.31999999999978	-9.591125875163373	-3.504363039903319	27.15377316322336	0	0.9399999999999999	0	37.03668299733862	-10.5173880206306	-9.910511347935925	46.18550851881066	0.8060891903611354	0	0	0	37.03668299733862	-10.5173880206306	-9.910511347935925	46.18550851881066	0.8060891903611354	0	0	0	-7.931184188230388	-3.277297456130654	6.177685789853856	66.89130603617488	-8.43803094904686	1.738628586540105	71.44903905909122	94.41038954177453	0	0	13.21668695521065	-4.854755617392375	9.240538789191286	57.66683828004719	118.0690258567983	0	0
14.33999999999978	-9.607420750565824	-3.50670320720908	27.16590685786285	0	0.9399999999999999	0	37.0394061972758	-10.51677930935438	-9.910578965262408	46.18754932758006	0.806124809193565	0	0	0	37.0394061972758	-10.51677930935438	-9.910578965262408	46.18754932758006	0.806124809193565	0	0	0	-7.94783331185452	-3.269724239563699	6.173913275484494	66.41792744193201	-8.251032283018667	1.62847720698681	71.2128766553287	94.75945424265988	0	0	13.25097852710931	-4.839252787167833	9.248686067589425	57.65367860894534	118.080035517673	0	0
14.35999999999978	-9.637865128496479	-3.516930814135682	27.16593689584193	0	0.9399999999999999	0	37.04257661202215	-10.51607055891212	-9.910657705199068	46.18992313436068	0.806166239937693	0	0	0	37.04257661202215	-10.51607055891212	-9.910657705199068	46.18992313436068	0.806166239937693	0	0	0	-7.979772592187517	-3.265294734152511	6.188338842082386	66.01322447488918	-8.112771744669899	1.513764900159045	70.33635250899106	95.09605340724153	0	0	13.26430570000808	-4.824592313537059	9.258575910462607	57.69327692739391	118.0967415291027	0	0
14.37999999999978	-9.671904372918979	-3.526434101433117	27.15720999910374	0	0.9399999999999999	0	37.0462741076937	-10.51524446087165	-9.91074951736846	46.19269060206585	0.8062145413610908	0	0	0	37.0462741076937	-10.51524446087165	-9.91074951736846	46.19269060206585	0.8062145413610908	0	0	0	-8.015475032486304	-3.25592012655671	6.189750784711672	65.6563795282689	-7.996786879032686	1.414383567764339	69.00027818509197	95.35898625618475	0	0	13.20806765115864	-4.826910132129689	9.159684653033166	57.80401311084175	118.1493025839857	0	0
14.39999999999978	-9.696077130198399	-3.536914230367042	27.1522044379773	0	0.9399999999999999	0	37.04981864676495	-10.51445400688879	-9.91083743960982	46.19534598818388	0.8062608865917622	0	0	0	37.04981864676495	-10.51445400688879	-9.91083743960982	46.19534598818388	0.8062608865917622	0	0	0	-8.041208025159255	-3.256423486691497	6.214814514403717	65.31313924026291	-7.91247496099017	1.250488936854998	67.87272368013842	95.67277065498703	0	0	13.21302409623714	-4.827633122042085	9.12241692130736	57.839992548976	118.197175733636	0	0
14.41999999999978	-9.712865148132016	-3.539444410626636	27.14781482971074	0	0.9399999999999999	0	37.05289464625593	-10.5137685186162	-9.910913717666245	46.19764997750044	0.806301098791267	0	0	0	37.05289464625593	-10.5137685186162	-9.910913717666245	46.19764997750044	0.806301098791267	0	0	0	-8.056856490450375	-3.252994351087856	6.236776088606446	64.97078352859523	-7.863138440589207	1.045634764925397	67.34230947071877	95.95912882892783	0	0	13.18966877164213	-4.830662947919911	9.07796288955592	57.86512035628019	118.2561709512444	0	0
14.43999999999978	-9.747671576673447	-3.545530852111474	27.13456485816613	0	0.9399999999999999	0	37.05600148401755	-10.51307617689793	-9.91099077091436	46.19997535480194	0.8063416842815293	0	0	0	37.05600148401755	-10.51307617689793	-9.91099077091436	46.19997535480194	0.8063416842815293	0	0	0	-8.090570649247338	-3.243584350359481	6.254553450473558	64.6954929980016	-7.833671127076576	0.8755585037382486	66.88329139553782	96.21540889658513	0	0	13.18752487668689	-4.817102290758657	9.024983829142615	57.92968474939966	118.3007976705876	0	0
14.45999999999978	-9.76086053381219	-3.542045509586862	27.1475997348979	0	0.9399999999999999	0	37.05777006310938	-10.51268795626041	-9.911034213600372	46.20131632648189	0.8063650886525204	0	0	0	37.05777006310938	-10.51268795626041	-9.911034213600372	46.20131632648189	0.8063650886525204	0	0	0	-8.101541091806666	-3.23253408807548	6.248942234090811	64.69949267321414	-7.848923871042885	0.8896877177749576	66.54147609621506	96.23025440965469	0	0	13.13490503408438	-4.818427913352906	8.984466812517763	57.97603692300051	118.3560023154099	0	0
14.47999999999978	-9.788416090216773	-3.553339561890001	27.13925332950013	0	0.9399999999999999	0	37.06077817745216	-10.51201867918777	-9.911108759155891	46.20356843985736	0.8064043954460505	0	0	0	37.06077817745216	-10.51201867918777	-9.911108759155891	46.20356843985736	0.8064043954460505	0	0	0	-8.131382008983119	-3.230228139367159	6.260111180326847	64.45863322821472	-7.805732916288493	0.7392773194039121	66.12166063478153	96.41126111954028	0	0	13.12712725815198	-4.809709409431923	8.935273255980483	58.04146252403127	118.400645993638	0	0
14.49999999999978	-9.813901308315868	-3.5526815733729	27.14731088026157	0	0.9399999999999999	0	37.06291502818367	-10.51154980448022	-9.911161245043077	46.20518762662108	0.8064326555862821	0	0	0	37.06291502818367	-10.51154980448022	-9.911161245043077	46.20518762662108	0.8064326555862821	0	0	0	-8.154140323233367	-3.21768392446835	6.266446527875109	64.4846759937388	-7.823574232052931	0.7770215361626108	65.53025059385588	96.44608958688518	0	0	13.09753453051878	-4.806938929606753	8.925630728505451	58.07262662943676	118.4447043512678	0	0
14.51999999999978	-9.847374340532516	-3.562234149771434	27.13234854741322	0	0.9399999999999999	0	37.06601086595639	-10.51086147136746	-9.911237950436737	46.20750394702806	0.8064730830039151	0	0	0	37.06601086595639	-10.51086147136746	-9.911237950436737	46.20750394702806	0.8064730830039151	0	0	0	-8.188254832842791	-3.211737159023502	6.282821001802313	63.99248689737264	-7.777631945660288	0.6390917549068832	65.46625877979051	96.74726078916255	0	0	13.09372518182703	-4.808261683249535	8.927335467950208	58.12824900846962	118.4587721964878	0	0
14.53999999999978	-9.894129935865724	-3.576253675219534	27.12118747837532	0	0.9399999999999999	0	37.06660722398872	-10.51073187372054	-9.911252509099004	46.20795945545996	0.8064810331258224	0	0	0	37.06660722398872	-10.51073187372054	-9.911252509099004	46.20795945545996	0.8064810331258224	0	0	0	-8.236756679003904	-3.201809319235693	6.282650360146791	63.82406703186024	-7.774334271678303	0.6535965029131187	65.43964441895686	96.78286370690296	0	0	13.13565648724876	-4.813315497880431	8.929378842308614	58.15298244408948	118.4688270625164	0	0
14.55999999999978	-9.934172400813525	-3.575161647837125	27.10959481630064	0	0.9399999999999999	0	37.07012474736403	-10.50995014630332	-9.911339655095501	46.21058957577466	0.8065269373850376	0	0	0	37.07012474736403	-10.50995014630332	-9.911339655095501	46.21058957577466	0.8065269373850376	0	0	0	-8.272524174776468	-3.181619603070108	6.289319850022405	63.6319178971995	-7.756700239332385	0.6676896307520038	64.97288552049461	97.04058982261778	0	0	13.10806859767229	-4.796716798055219	8.908688040531288	58.24303013957245	118.4789423445639	0	0
14.57999999999978	-9.948210357686502	-3.572820753457792	27.10534241558136	0	0.9399999999999999	0	37.07223036393667	-10.50948404940061	-9.911391692962077	46.21216886848434	0.8065545012426741	0	0	0	37.07223036393667	-10.50948404940061	-9.911391692962077	46.21216886848434	0.8065545012426741	0	0	0	-8.284799578403836	-3.171200333012083	6.284651795774455	63.4350300165607	-7.717774408963311	0.6644311644135739	64.94309212144461	97.1535560396462	0	0	13.05856066029445	-4.818237813206448	8.880596502768988	58.2714032461574	118.501396952243	0	0
14.59999999999978	-9.996524464687013	-3.578192799341815	27.09340805934965	0	0.9399999999999999	0	37.07353931990986	-10.50919573656248	-9.911423940639281	46.21315471957598	0.8065717075901575	0	0	0	37.07353931990986	-10.50919573656248	-9.911423940639281	46.21315471957598	0.8065717075901575	0	0	0	-8.330865136530358	-3.152818755409493	6.285973422128817	63.33421145411871	-7.720192536644709	0.6868378702359498	64.77011468926233	97.24702892602456	0	0	13.08194578185346	-4.81749857750907	8.861723372307106	58.3213732959544	118.5047565034656	0	0
14.61999999999978	-10.00776911596476	-3.580868522842953	27.08304920825346	0	0.9399999999999999	0	37.07735268410656	-10.50835187921971	-9.911518182565139	46.21601298749424	0.8066215937762354	0	0	0	37.07735268410656	-10.50835187921971	-9.911518182565139	46.21601298749424	0.8066215937762354	0	0	0	-8.342827621766459	-3.148733436808466	6.287550993226519	63.21809324789877	-7.650611419688517	0.6572923564719284	64.40362600695956	97.43463945152246	0	0	13.10011000486507	-4.817921732373727	8.856180673967486	58.31532503094925	118.5302944444191	0	0
14.63999999999978	-10.02876108431255	-3.575648311534649	27.06644070693768	0	0.9399999999999999	0	37.07979732071602	-10.50781155886481	-9.911578560863076	46.21784588181235	0.8066535838169275	0	0	0	37.07979732071602	-10.50781155886481	-9.911578560863076	46.21784588181235	0.8066535838169275	0	0	0	-8.359496946612687	-3.13434824244405	6.295313908796719	62.95929410738116	-7.568983608035923	0.5279826998081847	64.26279967085544	97.65087603187256	0	0	13.06307529051034	-4.809671004818536	8.847370533677944	58.35189195010256	118.5387241991573	0	0
14.65999999999978	-10.05035194421168	-3.581432612843177	27.04722668708304	0	0.9399999999999999	0	37.0824403004591	-10.50723106436486	-9.911643576761735	46.21983816816972	0.8066883557735063	0	0	0	37.0824403004591	-10.50723106436486	-9.911643576761735	46.21983816816972	0.8066883557735063	0	0	0	-8.380832160684211	-3.132138864117564	6.318036789848667	62.86695742117627	-7.505076287128546	0.420673321534842	63.64573504063528	97.9217627807392	0	0	13.10004998780505	-4.795691440117285	8.854447857484461	58.3338073001791	118.5634212784091	0	0
